<svg width="100" height="100" viewBox="0 0 100 100" fill="none" xmlns="http://www.w3.org/2000/svg">
<g clip-path="url(#clip0_315_2)">
<g filter="url(#filter0_d_315_2)">
<path d="M10 48L30 13.359L70 13.359L90 48L70 82.641L30 82.641L10 48Z" fill="#0B3A44"/>
<path d="M30.7529 14.6631L69.2461 14.6631L88.4932 48L69.2461 81.3369L30.7529 81.3369L11.5059 48L30.7529 14.6631Z" stroke="#00FDC5" stroke-width="2.6087"/>
</g>
<mask id="path-3-outside-1_315_2" maskUnits="userSpaceOnUse" x="27.8696" y="24" width="44" height="50" fill="black">
<rect fill="white" x="27.8696" y="24" width="44" height="50"/>
<path d="M39.9478 71.2522C39.113 68.9565 38.2157 66.7652 37.2557 64.6783C36.2957 62.5496 35.2522 60.5043 34.1252 58.5426C33.04 56.5809 31.8296 54.6609 30.4939 52.7826L34 50.4035C35.7113 52.9913 37.2765 55.7043 38.6957 58.5426C40.1148 61.3809 41.3044 64.1983 42.2644 66.9948H42.5148C43.6417 63.28 45.0191 59.5861 46.647 55.913C48.2748 52.1983 50.0904 48.6087 52.0939 45.1443C54.1391 41.68 56.3096 38.4243 58.6052 35.3774C60.9009 32.3304 63.2591 29.5965 65.68 27.1757L69.0609 30.3061C65.7635 33.353 62.6122 36.9426 59.607 41.0748C56.6017 45.207 53.8678 49.7565 51.4052 54.7235C48.9426 59.6904 46.9183 64.9913 45.3322 70.6261L39.9478 71.2522Z"/>
</mask>
<path d="M39.9478 71.2522C39.113 68.9565 38.2157 66.7652 37.2557 64.6783C36.2957 62.5496 35.2522 60.5043 34.1252 58.5426C33.04 56.5809 31.8296 54.6609 30.4939 52.7826L34 50.4035C35.7113 52.9913 37.2765 55.7043 38.6957 58.5426C40.1148 61.3809 41.3044 64.1983 42.2644 66.9948H42.5148C43.6417 63.28 45.0191 59.5861 46.647 55.913C48.2748 52.1983 50.0904 48.6087 52.0939 45.1443C54.1391 41.68 56.3096 38.4243 58.6052 35.3774C60.9009 32.3304 63.2591 29.5965 65.68 27.1757L69.0609 30.3061C65.7635 33.353 62.6122 36.9426 59.607 41.0748C56.6017 45.207 53.8678 49.7565 51.4052 54.7235C48.9426 59.6904 46.9183 64.9913 45.3322 70.6261L39.9478 71.2522Z" fill="#00FFC6"/>
<path d="M39.9478 71.2522L37.4962 72.1437C37.9093 73.2796 39.0485 73.983 40.2491 73.8434L39.9478 71.2522ZM37.2557 64.6783L34.8776 65.7507C34.8803 65.7566 34.883 65.7625 34.8857 65.7684L37.2557 64.6783ZM34.1252 58.5426L31.8425 59.8054C31.8493 59.8177 31.8562 59.8299 31.8632 59.8421L34.1252 58.5426ZM30.4939 52.7826L29.0291 50.624C28.4484 51.018 28.051 51.6294 27.9265 52.3201C27.8021 53.0108 27.9612 53.7225 28.3679 54.2944L30.4939 52.7826ZM34 50.4035L36.176 48.9645C35.7913 48.3829 35.1899 47.9795 34.5059 47.8443C33.8219 47.7091 33.1122 47.8533 32.5352 48.2448L34 50.4035ZM38.6957 58.5426L36.3624 59.7093H36.3624L38.6957 58.5426ZM42.2644 66.9948L39.797 67.8418C40.1588 68.8957 41.1501 69.6035 42.2644 69.6035V66.9948ZM42.5148 66.9948V69.6035C43.6638 69.6035 44.6776 68.8517 45.0111 67.7521L42.5148 66.9948ZM46.647 55.913L49.032 56.97L49.0363 56.9601L46.647 55.913ZM52.0939 45.1443L49.8475 43.8181C49.8435 43.8249 49.8396 43.8316 49.8357 43.8384L52.0939 45.1443ZM65.68 27.1757L67.4524 25.2615C66.4238 24.3091 64.8266 24.3398 63.8354 25.331L65.68 27.1757ZM69.0609 30.3061L70.8313 32.222C71.3654 31.7285 71.6692 31.0346 71.6696 30.3074C71.6699 29.5803 71.3668 28.886 70.8332 28.3919L69.0609 30.3061ZM59.607 41.0748L61.7167 42.6091V42.6091L59.607 41.0748ZM51.4052 54.7235L49.068 53.5647V53.5647L51.4052 54.7235ZM45.3322 70.6261L45.6335 73.2173C46.684 73.0952 47.5567 72.3509 47.8433 71.3329L45.3322 70.6261ZM39.9478 71.2522L42.3995 70.3607C41.5417 68.0019 40.6174 65.744 39.6256 63.5881L37.2557 64.6783L34.8857 65.7684C35.8139 67.7864 36.6844 69.9111 37.4962 72.1437L39.9478 71.2522ZM37.2557 64.6783L39.6337 63.6058C38.6399 61.4021 37.5579 59.2809 36.3872 57.2432L34.1252 58.5426L31.8632 59.8421C32.9465 61.7278 33.9514 63.6971 34.8776 65.7507L37.2557 64.6783ZM34.1252 58.5426L36.4079 57.2798C35.2739 55.2298 34.0108 53.2268 32.6199 51.2708L30.4939 52.7826L28.3679 54.2944C29.6483 56.0949 30.8061 57.9319 31.8425 59.8054L34.1252 58.5426ZM30.4939 52.7826L31.9587 54.9412L35.4648 52.5621L34 50.4035L32.5352 48.2448L29.0291 50.624L30.4939 52.7826ZM34 50.4035L31.8241 51.8424C33.4762 54.3408 34.9891 56.9627 36.3624 59.7093L38.6957 58.5426L41.0289 57.376C39.564 54.446 37.9464 51.6419 36.176 48.9645L34 50.4035ZM38.6957 58.5426L36.3624 59.7093C37.7335 62.4515 38.8772 65.1623 39.797 67.8418L42.2644 66.9948L44.7317 66.1478C43.7315 63.2342 42.4961 60.3102 41.0289 57.376L38.6957 58.5426ZM42.2644 66.9948V69.6035H42.5148V66.9948V64.3861H42.2644V66.9948ZM42.5148 66.9948L45.0111 67.7521C46.1061 64.1429 47.4458 60.5489 49.0319 56.97L46.647 55.913L44.262 54.8561C42.5924 58.6232 41.1774 62.4171 40.0184 66.2375L42.5148 66.9948ZM46.647 55.913L49.0363 56.9601C50.6258 53.3328 52.3978 49.8297 54.3522 46.4503L52.0939 45.1443L49.8357 43.8384C47.7831 47.3877 45.9238 51.0637 44.2576 54.866L46.647 55.913ZM52.0939 45.1443L54.3404 46.4706C56.3386 43.0858 58.455 39.912 60.6887 36.9472L58.6052 35.3774L56.5217 33.8076C54.1641 36.9367 51.9397 40.2742 49.8475 43.8181L52.0939 45.1443ZM58.6052 35.3774L60.6887 36.9472C62.9194 33.9865 65.1988 31.3461 67.5246 29.0203L65.68 27.1757L63.8354 25.331C61.3195 27.8469 58.8823 30.6744 56.5217 33.8076L58.6052 35.3774ZM65.68 27.1757L63.9076 29.0898L67.2885 32.2202L69.0609 30.3061L70.8332 28.3919L67.4524 25.2615L65.68 27.1757ZM69.0609 30.3061L67.2904 28.3901C63.852 31.5675 60.5893 35.2888 57.4972 39.5404L59.607 41.0748L61.7167 42.6091C64.635 38.5964 67.675 35.1386 70.8313 32.222L69.0609 30.3061ZM59.607 41.0748L57.4972 39.5404C54.3988 43.8007 51.5903 48.4774 49.068 53.5647L51.4052 54.7235L53.7424 55.8823C56.1454 51.0357 58.8047 46.6132 61.7167 42.6091L59.607 41.0748ZM51.4052 54.7235L49.068 53.5647C46.5297 58.6844 44.4486 64.1374 42.8211 69.9193L45.3322 70.6261L47.8433 71.3329C49.388 65.8452 51.3556 60.6965 53.7424 55.8823L51.4052 54.7235ZM45.3322 70.6261L45.0309 68.0349L39.6465 68.6609L39.9478 71.2522L40.2491 73.8434L45.6335 73.2173L45.3322 70.6261Z" fill="#00FFC6" mask="url(#path-3-outside-1_315_2)"/>
<g filter="url(#filter1_d_315_2)">
<path d="M78.4694 28.04C89.3349 25.5224 96.9274 25.5507 98.3268 28.7109C100.881 34.4839 81.807 48.5249 55.7213 60.0723L53.2838 61.1338C28.2036 71.9012 6.33606 76.1204 3.86 70.5283C2.55272 67.574 6.91017 62.4546 14.9723 56.6123L16.983 60.0957C16.9197 60.1421 16.8564 60.1891 16.7936 60.2354C13.0606 62.9831 10.4211 65.3972 8.90199 67.3066C8.43794 67.89 8.12862 68.3633 7.93031 68.7266C8.33255 68.824 8.89037 68.9132 9.63441 68.9619C12.0693 69.1211 15.6312 68.7902 20.1754 67.874C20.5565 67.7972 20.9429 67.7153 21.3346 67.6309L21.3629 67.6807L21.5153 67.5918C30.3745 65.6646 41.8694 61.8301 54.1022 56.415C66.9612 50.7227 77.9806 44.4619 85.3942 39.0049C89.1274 36.2569 91.7666 33.8421 93.2858 31.9326C93.7497 31.3495 94.0572 30.8759 94.2555 30.5127C93.8534 30.4154 93.2956 30.325 92.5524 30.2764C90.1175 30.1173 86.5561 30.4492 82.0123 31.3652C81.5379 31.4609 81.0549 31.5626 80.5641 31.6699L78.4694 28.04Z" fill="#618EFF"/>
</g>
</g>
<defs>
<filter id="filter0_d_315_2" x="3.91304" y="7.27242" width="92.1739" height="81.4552" filterUnits="userSpaceOnUse" color-interpolation-filters="sRGB">
<feFlood flood-opacity="0" result="BackgroundImageFix"/>
<feColorMatrix in="SourceAlpha" type="matrix" values="0 0 0 0 0 0 0 0 0 0 0 0 0 0 0 0 0 0 127 0" result="hardAlpha"/>
<feOffset/>
<feGaussianBlur stdDeviation="3.04348"/>
<feComposite in2="hardAlpha" operator="out"/>
<feColorMatrix type="matrix" values="0 0 0 0 0 0 0 0 0 1 0 0 0 0 0.776471 0 0 0 1 0"/>
<feBlend mode="normal" in2="BackgroundImageFix" result="effect1_dropShadow_315_2"/>
<feBlend mode="normal" in="SourceGraphic" in2="effect1_dropShadow_315_2" result="shape"/>
</filter>
<filter id="filter1_d_315_2" x="-0.36937" y="22.2383" width="102.926" height="54.7617" filterUnits="userSpaceOnUse" color-interpolation-filters="sRGB">
<feFlood flood-opacity="0" result="BackgroundImageFix"/>
<feColorMatrix in="SourceAlpha" type="matrix" values="0 0 0 0 0 0 0 0 0 0 0 0 0 0 0 0 0 0 127 0" result="hardAlpha"/>
<feOffset/>
<feGaussianBlur stdDeviation="2"/>
<feComposite in2="hardAlpha" operator="out"/>
<feColorMatrix type="matrix" values="0 0 0 0 0.380392 0 0 0 0 0.556863 0 0 0 0 1 0 0 0 1 0"/>
<feBlend mode="normal" in2="BackgroundImageFix" result="effect1_dropShadow_315_2"/>
<feBlend mode="normal" in="SourceGraphic" in2="effect1_dropShadow_315_2" result="shape"/>
</filter>
<clipPath id="clip0_315_2">
<rect width="100" height="100" fill="white"/>
</clipPath>
</defs>
</svg>
