<svg width="100" height="100" viewBox="0 0 100 100" fill="none" xmlns="http://www.w3.org/2000/svg">
<g clip-path="url(#clip0_315_2)">
<g filter="url(#filter0_d_315_2)">
<path d="M4 48L27 8.16284L73 8.16284L96 48L73 87.8372L27 87.8372L4 48Z" fill="#0B3A44"/>
<path d="M27.8652 9.66308L72.1338 9.66308L94.2676 48L72.1338 86.3369L27.8652 86.3369L5.73144 48L27.8652 9.66308Z" stroke="#00FDC5" stroke-width="3"/>
</g>
<mask id="path-3-outside-1_315_2" maskUnits="userSpaceOnUse" x="24" y="20" width="51" height="58" fill="black">
<rect fill="white" x="24" y="20" width="51" height="58"/>
<path d="M38.44 74.44C37.48 71.8 36.448 69.28 35.344 66.88C34.24 64.432 33.04 62.08 31.744 59.824C30.496 57.568 29.104 55.36 27.568 53.2L31.6 50.464C33.568 53.44 35.368 56.56 37 59.824C38.632 63.088 40 66.328 41.104 69.544H41.392C42.688 65.272 44.272 61.024 46.144 56.8C48.016 52.528 50.104 48.4 52.408 44.416C54.76 40.432 57.256 36.688 59.896 33.184C62.536 29.68 65.248 26.536 68.032 23.752L71.92 27.352C68.128 30.856 64.504 34.984 61.048 39.736C57.592 44.488 54.448 49.72 51.616 55.432C48.784 61.144 46.456 67.24 44.632 73.72L38.44 74.44Z"/>
</mask>
<path d="M38.44 74.44C37.48 71.8 36.448 69.28 35.344 66.88C34.24 64.432 33.04 62.08 31.744 59.824C30.496 57.568 29.104 55.36 27.568 53.2L31.6 50.464C33.568 53.44 35.368 56.56 37 59.824C38.632 63.088 40 66.328 41.104 69.544H41.392C42.688 65.272 44.272 61.024 46.144 56.8C48.016 52.528 50.104 48.4 52.408 44.416C54.76 40.432 57.256 36.688 59.896 33.184C62.536 29.68 65.248 26.536 68.032 23.752L71.92 27.352C68.128 30.856 64.504 34.984 61.048 39.736C57.592 44.488 54.448 49.72 51.616 55.432C48.784 61.144 46.456 67.24 44.632 73.72L38.44 74.44Z" fill="#00FFC6"/>
<path d="M38.44 74.44L35.6206 75.4652C36.0956 76.7715 37.4058 77.5805 38.7865 77.4199L38.44 74.44ZM35.344 66.88L32.6092 68.1133C32.6123 68.1201 32.6154 68.1269 32.6185 68.1337L35.344 66.88ZM31.744 59.824L29.1189 61.2762C29.1267 61.2903 29.1346 61.3044 29.1427 61.3184L31.744 59.824ZM27.568 53.2L25.8835 50.7176C25.2157 51.1707 24.7586 51.8739 24.6155 52.6681C24.4724 53.4624 24.6554 54.2809 25.1231 54.9386L27.568 53.2ZM31.6 50.464L34.1023 48.8092C33.66 48.1404 32.9684 47.6765 32.1818 47.521C31.3951 47.3654 30.579 47.5313 29.9155 47.9816L31.6 50.464ZM37 59.824L34.3167 61.1656H34.3167L37 59.824ZM41.104 69.544L38.2665 70.5181C38.6826 71.7301 39.8226 72.544 41.104 72.544V69.544ZM41.392 69.544V72.544C42.7134 72.544 43.8792 71.6794 44.2628 70.4149L41.392 69.544ZM46.144 56.8L48.8867 58.0155L48.8918 58.0041L46.144 56.8ZM52.408 44.416L49.8246 42.8909C49.82 42.8986 49.8155 42.9063 49.811 42.9141L52.408 44.416ZM68.032 23.752L70.0702 21.5507C68.8874 20.4555 67.0505 20.4908 65.9107 21.6307L68.032 23.752ZM71.92 27.352L73.956 29.5553C74.5702 28.9878 74.9196 28.1897 74.92 27.3535C74.9204 26.5173 74.5718 25.7189 73.9582 25.1507L71.92 27.352ZM61.048 39.736L63.4742 41.5005V41.5005L61.048 39.736ZM51.616 55.432L48.9282 54.0994V54.0994L51.616 55.432ZM44.632 73.72L44.9785 76.6999C46.1865 76.5595 47.1903 75.7035 47.5198 74.5329L44.632 73.72ZM38.44 74.44L41.2594 73.4148C40.273 70.7022 39.21 68.1057 38.0695 65.6263L35.344 66.88L32.6185 68.1337C33.686 70.4543 34.687 72.8978 35.6206 75.4652L38.44 74.44ZM35.344 66.88L38.0788 65.6467C36.9358 63.1124 35.6916 60.6731 34.3453 58.3296L31.744 59.824L29.1427 61.3184C30.3884 63.4869 31.5442 65.7516 32.6092 68.1133L35.344 66.88ZM31.744 59.824L34.3691 58.3718C33.065 56.0143 31.6125 53.7109 30.0129 51.4614L27.568 53.2L25.1231 54.9386C26.5955 57.0091 27.927 59.1217 29.1189 61.2762L31.744 59.824ZM27.568 53.2L29.2525 55.6824L33.2845 52.9464L31.6 50.464L29.9155 47.9816L25.8835 50.7176L27.568 53.2ZM31.6 50.464L29.0977 52.1188C30.9976 54.9919 32.7375 58.0071 34.3167 61.1656L37 59.824L39.6833 58.4824C37.9985 55.1129 36.1384 51.8881 34.1023 48.8092L31.6 50.464ZM37 59.824L34.3167 61.1656C35.8935 64.3192 37.2087 67.4366 38.2665 70.5181L41.104 69.544L43.9415 68.5699C42.7913 65.2194 41.3705 61.8568 39.6833 58.4824L37 59.824ZM41.104 69.544V72.544H41.392V69.544V66.544H41.104V69.544ZM41.392 69.544L44.2628 70.4149C45.522 66.2643 47.0627 62.1313 48.8867 58.0155L46.144 56.8L43.4013 55.5845C41.4813 59.9167 39.854 64.2797 38.5212 68.6731L41.392 69.544ZM46.144 56.8L48.8918 58.0041C50.7197 53.8327 52.7575 49.8042 55.005 45.9179L52.408 44.416L49.811 42.9141C47.4505 46.9958 45.3123 51.2233 43.3962 55.5959L46.144 56.8ZM52.408 44.416L54.9914 45.9411C57.2893 42.0487 59.7233 38.3987 62.2921 34.9892L59.896 33.184L57.4999 31.3787C54.7887 34.9772 52.2307 38.8153 49.8246 42.8909L52.408 44.416ZM59.896 33.184L62.2921 34.9892C64.8573 31.5844 67.4786 28.5481 70.1533 25.8733L68.032 23.752L65.9107 21.6307C63.0174 24.5239 60.2147 27.7756 57.4999 31.3787L59.896 33.184ZM68.032 23.752L65.9938 25.9533L69.8818 29.5533L71.92 27.352L73.9582 25.1507L70.0702 21.5507L68.032 23.752ZM71.92 27.352L69.884 25.1487C65.9298 28.8026 62.1777 33.0821 58.6218 37.9715L61.048 39.736L63.4742 41.5005C66.8303 36.8859 70.3262 32.9094 73.956 29.5553L71.92 27.352ZM61.048 39.736L58.6218 37.9715C55.0587 42.8708 51.8288 48.249 48.9282 54.0994L51.616 55.432L54.3038 56.7646C57.0672 51.191 60.1254 46.1052 63.4742 41.5005L61.048 39.736ZM51.616 55.432L48.9282 54.0994C46.0091 59.9871 43.6158 66.258 41.7442 72.9071L44.632 73.72L47.5198 74.5329C49.2962 68.222 51.5589 62.3009 54.3038 56.7646L51.616 55.432ZM44.632 73.72L44.2855 70.7401L38.0935 71.4601L38.44 74.44L38.7865 77.4199L44.9785 76.6999L44.632 73.72Z" fill="#00FFC6" mask="url(#path-3-outside-1_315_2)"/>
</g>
<defs>
<filter id="filter0_d_315_2" x="-3" y="1.16211" width="106" height="93.6758" filterUnits="userSpaceOnUse" color-interpolation-filters="sRGB">
<feFlood flood-opacity="0" result="BackgroundImageFix"/>
<feColorMatrix in="SourceAlpha" type="matrix" values="0 0 0 0 0 0 0 0 0 0 0 0 0 0 0 0 0 0 127 0" result="hardAlpha"/>
<feOffset/>
<feGaussianBlur stdDeviation="3.5"/>
<feComposite in2="hardAlpha" operator="out"/>
<feColorMatrix type="matrix" values="0 0 0 0 0 0 0 0 0 1 0 0 0 0 0.776471 0 0 0 1 0"/>
<feBlend mode="normal" in2="BackgroundImageFix" result="effect1_dropShadow_315_2"/>
<feBlend mode="normal" in="SourceGraphic" in2="effect1_dropShadow_315_2" result="shape"/>
</filter>
<clipPath id="clip0_315_2">
<rect width="100" height="100" fill="white"/>
</clipPath>
</defs>
</svg>
